# xmcd CD database file
#
# Track frame offsets:
#	182
#	25352
#	48252
#	66852
#	93932
#	116592
#	131875
#	152305
#	179302
#	200665
#	217717
#	241100
#	258307
#	279230
#	294812
#
# Disc length: 4176 seconds
#
# Revision: 4
# Processed by: cddbd v1.5.2PL0 Copyright (c) Steve Scherf et al.
# Submitted via: CDex 1.70beta2
#
DISCID=c8104e0f
DTITLE=The Brothers Johnson - Classics Volume 11
DYEAR=1987
DGENRE=Funk
TTITLE0=Ain't We Funkin' Now ( 1978 ) - The Brothers Johnson
TTITLE1=Strawberry Letter #23 ( 1977 ) - The Brothers Johnson
TTITLE2=Free and Single ( 1976 ) - The Brothers Johnson
TTITLE3=Stomp ( 1980 ) - The Brothers Johnson
TTITLE4=Runnin' For Your Lovin' ( 1977 ) - The Brothers Johnson
TTITLE5="Q" ( 1977 ) - The Brothers Johnson
TTITLE6=Land Of Ladies ( 1976 ) - The Brothers Johnson
TTITLE7=Get The Funk Out Ma Face ( 1976 ) - The Brothers Johnson
TTITLE8=I'll Be Good To You ( 1976 ) - The Brothers Johnson
TTITLE9=Light Up The Night ( 1980 ) - The Brothers Johnson
TTITLE10=You Keep Me Coming Back ( 1984 ) - The Brothers Johnson
TTITLE11=The Real Thing ( 1981 ) - The Brothers Johnson
TTITLE12=Tokyo ( 1984 ) - The Brothers Johnson
TTITLE13=Ride-O-Rocket ( 1978 ) - The Brothers Johnson
TTITLE14=Funk It ( Funkadelala 1982 ) - The Brothers Johnson
EXTD=A&M 1987 YEAR: 1987
EXTT0=
EXTT1=
EXTT2=
EXTT3=
EXTT4=
EXTT5=
EXTT6=
EXTT7=
EXTT8=
EXTT9=
EXTT10=
EXTT11=
EXTT12=
EXTT13=
EXTT14=
PLAYORDER=
